<svg xmlns="http://www.w3.org/2000/svg" width="260" height="260" viewBox="0 0 260 260"><g fill="#291c6f" fill-rule="evenodd"><path d="M208.462 154.277c39.23 94.297-78.462 94.297-78.462 0V107.13c156.924-141.447 156.924-47.15 78.462 47.147z" overflow="visible"/><path d="M133.923 97.7c7.846 23.573 1.878 103.19-3.923 103.726-5.8.535-11.77-80.153-3.923-103.727-11.77-9.43-11.77-18.86 3.923-18.86 15.692 0 15.692 9.43 3.923 18.86z" overflow="visible"/><path d="M51.538 154.277c-39.23 94.297 78.462 94.297 78.462 0V107.13C-26.924-34.318-26.924 59.98 51.538 154.276z" overflow="visible"/><path d="M180 902.617c5-35 45-45 45-45M170 902.617c-5-35-45-45-45-45" stroke="#291c6f" stroke-width="2" stroke-linecap="round" transform="matrix(.78462 0 0 .94297 -7.308 -767.585)"/></g></svg>